<?xml version="1.0" encoding="UTF-8"?>
<svg id="Layer_2" data-name="Layer 2" xmlns="http://www.w3.org/2000/svg" viewBox="0 0 1410.63 425.7">
  <defs>
    <style>
      .cls-1 {
        fill: #fff;
        stroke-width: 0px;
      }
    </style>
  </defs>
  <g id="Layer_1-2" data-name="Layer 1">
    <g>
      <path class="cls-1" d="M1051.09,8l-143.2,184.77-63.11-80.1,80.26-104.67h126.05M1059.67,0h-136.69c-1.18,0-2.29.55-3.01,1.49l-83.51,108.91c-1.06,1.38-1.04,3.3.03,4.66l71.46,90.71L1062.67,6.12c1.93-2.5.16-6.12-3-6.12h0Z"/>
      <path class="cls-1" d="M1075.94,418.73l-168.09-212.71-70.41,91.64c-1.2,1.56-1.19,3.74.03,5.29l95.63,121.12c.82,1.03,2.06,1.64,3.38,1.64h136.09c3.6,0,5.61-4.15,3.38-6.97Z"/>
      <path class="cls-1" d="M769,70.24c-1.55-1.95-3.9-3.08-6.38-3.08h-78c-6.8,0-10.61,7.84-6.4,13.18l95.38,121.17c2.31,2.93,2.33,7.06.05,10.02l-100.16,129.73c-4.13,5.36-.32,13.12,6.45,13.12h77.66c2.51,0,4.89-1.16,6.43-3.14l108.85-140.66c2.01-2.6,1.99-6.22-.04-8.8l-103.82-131.54Z"/>
      <g>
        <path class="cls-1" d="M69.43,259.05l-6.29-16.02H24.69l-6.29,16.02H0l33.59-82.97h20.65l33.59,82.97h-18.4ZM30.38,228.67h26.94l-13.29-34.42h-.24l-13.41,34.42Z"/>
        <path class="cls-1" d="M198.93,176.08v82.97h-17.45l-41.78-57.81h-.24v57.81h-17.09v-82.97h17.57l41.54,57.33h.36v-57.33h17.09Z"/>
        <path class="cls-1" d="M302.79,259.05l-6.29-16.02h-38.46l-6.29,16.02h-18.4l33.59-82.97h20.65l33.59,82.97h-18.4ZM263.73,228.67h26.94l-13.29-34.42h-.24l-13.41,34.42Z"/>
        <path class="cls-1" d="M354.66,176.08h17.09v67.77h44.75v15.19h-61.84v-82.97Z"/>
        <path class="cls-1" d="M521.42,176.08l-32.28,53.89v29.08h-16.97v-29.2l-32.05-53.77h19.7l20.89,37.03h.24l20.65-37.03h19.82Z"/>
        <path class="cls-1" d="M620.89,176.08v15.07h-26.71v67.89h-17.09v-67.89h-26.82v-15.07h70.62Z"/>
        <path class="cls-1" d="M675.61,176.08v82.97h-16.97v-82.97h16.97Z"/>
      </g>
      <g>
        <path class="cls-1" d="M1012.29,170.57h17.09v67.77h44.75v15.19h-61.84v-82.97Z"/>
        <path class="cls-1" d="M1172.64,253.53l-6.29-16.02h-38.46l-6.29,16.02h-18.4l33.59-82.97h20.66l33.59,82.97h-18.4ZM1133.59,223.15h26.94l-13.29-34.42h-.24l-13.42,34.42Z"/>
        <path class="cls-1" d="M1288.37,211.4c1.74.48,3.42,1.23,5.04,2.26,1.62,1.03,3.03,2.31,4.22,3.86,1.18,1.54,2.13,3.34,2.85,5.4.71,2.06,1.07,4.31,1.07,6.76,0,3.8-.71,7.18-2.13,10.15-1.43,2.97-3.4,5.46-5.93,7.48-2.53,2.02-5.58,3.56-9.14,4.63-3.56,1.07-7.48,1.6-11.75,1.6h-47v-82.97h45.11c9.33,0,16.49,2.1,21.48,6.29,4.99,4.19,7.48,10.13,7.48,17.8,0,3.88-1.01,7.3-3.03,10.27-2.02,2.97-4.76,5.09-8.25,6.35v.12ZM1242.55,204.87h26.58c4.98,0,8.47-.77,10.45-2.32,1.98-1.54,2.97-3.9,2.97-7.06s-1.03-5.48-3.09-7.18c-2.06-1.7-5.5-2.55-10.33-2.55h-26.58v19.11ZM1271.04,238.46c5.07,0,8.57-.75,10.5-2.25,1.94-1.5,2.91-3.84,2.91-7,0-3.32-.99-5.82-2.97-7.48-1.98-1.66-5.46-2.49-10.44-2.49h-28.49v19.23h28.49Z"/>
        <path class="cls-1" d="M1392.11,206.53c4.27,1.27,7.77,2.87,10.5,4.81,2.74,1.94,4.75,4.31,6.06,7.12,1.3,2.81,1.96,6.11,1.96,9.91,0,4.11-.83,7.83-2.49,11.16-1.66,3.32-4.11,6.17-7.36,8.55-3.25,2.37-7.22,4.19-11.93,5.46-4.71,1.26-10.11,1.9-16.2,1.9-3.32,0-6.69-.24-10.09-.71-3.4-.47-6.68-1.21-9.85-2.2-3.17-.99-6.07-2.26-8.73-3.8-2.65-1.54-4.93-3.42-6.82-5.64l11.51-11.87c1.43,1.5,3.11,2.81,5.05,3.92,1.94,1.11,3.99,2.04,6.17,2.79,2.17.75,4.37,1.33,6.58,1.72,2.21.4,4.28.59,6.17.59,7.52,0,12.88-.95,16.08-2.85,3.2-1.9,4.81-4.55,4.81-7.95,0-3.16-1.43-5.58-4.28-7.24-2.85-1.66-7.75-2.93-14.72-3.8l-3.32-.48c-5.7-.79-10.52-1.8-14.48-3.03-3.96-1.23-7.18-2.81-9.67-4.75-2.49-1.94-4.29-4.27-5.4-7-1.11-2.73-1.66-5.95-1.66-9.67s.81-7.24,2.43-10.33c1.62-3.08,3.96-5.7,7-7.83,3.05-2.14,6.77-3.78,11.16-4.93,4.39-1.15,9.31-1.72,14.77-1.72,6.89,0,12.96.91,18.22,2.73,5.26,1.82,10.03,4.51,14.3,8.07l-11.87,11.63c-1.27-1.19-2.77-2.25-4.51-3.2-1.74-.95-3.55-1.72-5.4-2.31-1.86-.59-3.72-1.05-5.58-1.36-1.86-.32-3.58-.48-5.16-.48-3.64,0-6.62.24-8.96.71-2.34.47-4.2,1.11-5.58,1.9-1.39.79-2.36,1.74-2.91,2.85-.56,1.11-.83,2.3-.83,3.56,0,1.03.2,2.04.6,3.03.39.99,1.16,1.92,2.31,2.79,1.15.87,2.79,1.68,4.93,2.43,2.14.75,4.94,1.41,8.43,1.96l3.44.48c5.93.79,11.04,1.82,15.31,3.09Z"/>
      </g>
    </g>
  </g>
</svg>